<svg xmlns="http://www.w3.org/2000/svg" viewBox="0 0 808.7 143.14"><g data-name="Layer 2"><g data-name="Layer 1"><g data-name="Layer 2"><path d="M695.89 58.14a101.48 101.48 0 0 1 2-15.55c2.48-10.14 6.54-12.39 17.8-14.42a125.62 125.62 0 0 1 21.41-1.58 136.74 136.74 0 0 1 21.9 1.58c18.25 3.15 21.86 7.89 21.86 30Zm62.87-56.79a187.56 187.56 0 0 0-43-.23C693 4.06 680.11 8.79 672.23 27.94c-5.18 12.39-6.76 28.17-6.76 43.27 0 13.75 1.35 28.62 5.86 40.79 7.89 21.41 20.28 26.59 44.39 29.75a163.85 163.85 0 0 0 21.41 1.13 176.13 176.13 0 0 0 22.08-1.35c22.08-2.93 37-9.69 44.39-30.87l-28.39-6.76c-3.15 6.75-7.44 8.1-16.21 10.1-6.54 1.58-14.2 2-21.86 2.25a105.19 105.19 0 0 1-21.14-1.58c-11.94-2-15.32-4.73-18-16.9a77.47 77.47 0 0 1-2-16.23h112.11C811 30 804.51 7.44 758.76 1.35ZM618.14 2.48l-46.2 111.77L525.75 2.48h-32l56.56 137.69h43.49L650.14 2.48Zm-439.21 0v137.69h30V97.58h37.41l27.94 42.59h33.58l-29.3-45.52c19.61 0 33.58-18.7 33.58-44.39 0-27-12.17-47.77-45.07-47.77Zm30 26.59h56.79c13.3 0 16.9 10.37 17.35 21.18.23 10.82-4.06 21.86-17.35 21.86H208.9ZM0 71.44c0 14.65 1.58 30 6.31 42.14 8.11 21 21.41 25 43.94 27.94a165.46 165.46 0 0 0 21.41 1.35 169 169 0 0 0 21.63-1.35c23.44-2.93 37-9.24 44.85-27.94a56.17 56.17 0 0 0 3.61-13.75l-28.4-6.53c-3.35 13.7-7.66 16.45-19.83 18.93A114.46 114.46 0 0 1 71.66 114a121.35 121.35 0 0 1-21.41-2c-11-2-13.29-4.73-16-14-2-7-2.93-16.9-2.93-26.59s.9-19.61 2.93-26.59c2.71-9.24 5-11.94 16-14a121.3 121.3 0 0 1 21.41-2 114.5 114.5 0 0 1 21.86 1.8c12.17 2.48 16.48 5.18 19.83 18.93l28.4-6.55a56.16 56.16 0 0 0-3.61-13.75c-7.89-18.7-21.41-25-44.85-27.94A169 169 0 0 0 71.66 0a165.46 165.46 0 0 0-21.41 1.35C27.72 4.28 14.42 8.34 6.31 29.3 1.58 41.46 0 56.79 0 71.44Zm473-24.79C473 9.69 447.1 0 405.41 0c-18.93 0-38.08 2.7-52.06 6.54l7.44 25.24a180.62 180.62 0 0 1 44.62-5c27.49.68 39.89 2 38.08 27.94A318.45 318.45 0 0 0 405.41 53c-44.62.9-67.41 6.31-67.41 42.37 0 37.63 22.76 47.77 67.38 47.77 18.48 0 41.69-.45 67.6-7.89Zm-29.52 33.8v33.13a228.51 228.51 0 0 1-38.08 2.48c-28.62-.45-38.08-.68-38.08-20.73 0-16.68 13.3-17.35 38.08-17.35a300.36 300.36 0 0 1 38.09 2.47Z" style="fill:#00c1f3" data-name="Layer 1-2"/></g></g></g></svg>